<svg xmlns="http://www.w3.org/2000/svg" viewBox="0 0 1180 720" width="1180" height="720" role="img" aria-label="qBraid SDK conversion graph">
<rect width="1180" height="720" fill="#FFFFFF"/>
<defs>
<marker id="arrow-native-light" viewBox="0 0 10 10" refX="9" refY="5" markerWidth="6" markerHeight="6" orient="auto-start-reverse"><path d="M 0 1 L 10 5 L 0 9 z" fill="#A78BFA"/></marker>
<marker id="arrow-ext-light" viewBox="0 0 10 10" refX="9" refY="5" markerWidth="6" markerHeight="6" orient="auto-start-reverse"><path d="M 0 1 L 10 5 L 0 9 z" fill="#C3C0CC"/></marker>
</defs>
<g fill="none">
<path d="M 562.2 252.4 Q 532.9 235.1 500.0 243.5" stroke="#C3C0CC" stroke-width="1.5" stroke-dasharray="5 4" marker-end="url(#arrow-ext-light)" opacity="0.9"/>
<path d="M 639.2 273.4 Q 649.9 291.7 670.3 285.9" stroke="#C3C0CC" stroke-width="1.5" stroke-dasharray="5 4" marker-end="url(#arrow-ext-light)" opacity="0.9"/>
<path d="M 622.2 275.9 Q 660.7 325.0 715.9 354.1" stroke="#A78BFA" stroke-width="1.5" marker-end="url(#arrow-native-light)" opacity="0.9"/>
<path d="M 573.8 275.9 Q 552.1 274.8 544.9 295.3" stroke="#A78BFA" stroke-width="1.5" marker-end="url(#arrow-native-light)" opacity="0.9"/>
<path d="M 177.5 592.9 L 265.9 592.9" stroke="#C3C0CC" stroke-width="1.5" stroke-dasharray="5 4" marker-end="url(#arrow-ext-light)" opacity="0.9"/>
<path d="M 768.4 375.9 Q 878.3 402.5 991.2 403.3" stroke="#C3C0CC" stroke-width="1.5" stroke-dasharray="5 4" marker-end="url(#arrow-ext-light)" opacity="0.9"/>
<path d="M 991.2 403.3 Q 878.3 402.5 768.4 375.9" stroke="#C3C0CC" stroke-width="1.5" stroke-dasharray="5 4" marker-end="url(#arrow-ext-light)" opacity="0.9"/>
<path d="M 706.4 374.9 L 509.5 392.8" stroke="#C3C0CC" stroke-width="1.5" stroke-dasharray="5 4" marker-end="url(#arrow-ext-light)" opacity="0.9"/>
<path d="M 730.1 354.1 Q 735.2 331.9 716.1 319.4" stroke="#C3C0CC" stroke-width="1.5" stroke-dasharray="5 4" marker-end="url(#arrow-ext-light)" opacity="0.9"/>
<path d="M 758.2 390.1 L 844.4 465.0" stroke="#C3C0CC" stroke-width="1.5" stroke-dasharray="5 4" marker-end="url(#arrow-ext-light)" opacity="0.9"/>
<path d="M 715.9 354.1 Q 660.7 325.0 622.2 275.9" stroke="#A78BFA" stroke-width="1.5" marker-end="url(#arrow-native-light)" opacity="0.9"/>
<path d="M 706.4 388.4 Q 651.7 402.5 609.0 439.6" stroke="#A78BFA" stroke-width="1.5" marker-end="url(#arrow-native-light)" opacity="0.9"/>
<path d="M 706.4 372.9 Q 679.4 360.6 653.0 374.2" stroke="#A78BFA" stroke-width="1.5" marker-end="url(#arrow-native-light)" opacity="0.9"/>
<path d="M 391.5 491.4 L 459.1 414.0" stroke="#C3C0CC" stroke-width="1.5" stroke-dasharray="5 4" marker-end="url(#arrow-ext-light)" opacity="0.9"/>
<path d="M 408.3 491.4 L 585.8 393.1" stroke="#A78BFA" stroke-width="1.5" marker-end="url(#arrow-native-light)" opacity="0.9"/>
<path d="M 318.2 433.0 L 362.2 491.4" stroke="#A78BFA" stroke-width="1.5" marker-end="url(#arrow-native-light)" opacity="0.9"/>
<path d="M 297.7 397.0 L 270.5 326.3" stroke="#A78BFA" stroke-width="1.5" marker-end="url(#arrow-native-light)" opacity="0.9"/>
<path d="M 354.4 422.8 L 536.2 451.5" stroke="#A78BFA" stroke-width="1.5" marker-end="url(#arrow-native-light)" opacity="0.9"/>
<path d="M 342.4 397.0 Q 418.5 375.2 483.3 329.9" stroke="#A78BFA" stroke-width="1.5" marker-end="url(#arrow-native-light)" opacity="0.9"/>
<path d="M 418.5 298.1 Q 444.1 284.6 448.6 256.0" stroke="#C3C0CC" stroke-width="1.5" stroke-dasharray="5 4" marker-end="url(#arrow-ext-light)" opacity="0.9"/>
<path d="M 455.4 301.3 L 562.2 269.4" stroke="#C3C0CC" stroke-width="1.5" stroke-dasharray="5 4" marker-end="url(#arrow-ext-light)" opacity="0.9"/>
<path d="M 455.4 324.5 L 706.4 366.9" stroke="#C3C0CC" stroke-width="1.5" stroke-dasharray="5 4" marker-end="url(#arrow-ext-light)" opacity="0.9"/>
<path d="M 455.4 329.9 L 583.5 365.4" stroke="#A78BFA" stroke-width="1.5" marker-end="url(#arrow-native-light)" opacity="0.9"/>
<path d="M 609.0 439.6 Q 651.7 402.5 706.4 388.4" stroke="#A78BFA" stroke-width="1.5" marker-end="url(#arrow-native-light)" opacity="0.9"/>
<path d="M 567.7 439.6 L 525.1 331.3" stroke="#A78BFA" stroke-width="1.5" marker-end="url(#arrow-native-light)" opacity="0.9"/>
<path d="M 670.3 285.9 Q 649.9 291.7 639.2 273.4" stroke="#C3C0CC" stroke-width="1.5" stroke-dasharray="5 4" marker-end="url(#arrow-ext-light)" opacity="0.9"/>
<path d="M 670.3 291.6 L 500.0 247.9" stroke="#C3C0CC" stroke-width="1.5" stroke-dasharray="5 4" marker-end="url(#arrow-ext-light)" opacity="0.9"/>
<path d="M 716.1 319.4 Q 735.2 331.9 730.1 354.1" stroke="#C3C0CC" stroke-width="1.5" stroke-dasharray="5 4" marker-end="url(#arrow-ext-light)" opacity="0.9"/>
<path d="M 670.3 317.0 L 509.5 381.9" stroke="#C3C0CC" stroke-width="1.5" stroke-dasharray="5 4" marker-end="url(#arrow-ext-light)" opacity="0.9"/>
<path d="M 686.7 319.4 Q 655.3 328.2 640.4 357.1" stroke="#A78BFA" stroke-width="1.5" marker-end="url(#arrow-native-light)" opacity="0.9"/>
<path d="M 624.9 393.1 Q 635.8 459.6 671.0 517.0" stroke="#C3C0CC" stroke-width="1.5" stroke-dasharray="5 4" marker-end="url(#arrow-ext-light)" opacity="0.9"/>
<path d="M 671.0 517.0 Q 635.8 459.6 624.9 393.1" stroke="#C3C0CC" stroke-width="1.5" stroke-dasharray="5 4" marker-end="url(#arrow-ext-light)" opacity="0.9"/>
<path d="M 653.0 368.6 Q 755.5 336.3 862.7 329.6" stroke="#C3C0CC" stroke-width="1.5" stroke-dasharray="5 4" marker-end="url(#arrow-ext-light)" opacity="0.9"/>
<path d="M 862.7 329.6 Q 755.5 336.3 653.0 368.6" stroke="#C3C0CC" stroke-width="1.5" stroke-dasharray="5 4" marker-end="url(#arrow-ext-light)" opacity="0.9"/>
<path d="M 653.0 390.3 L 837.9 471.1" stroke="#C3C0CC" stroke-width="1.5" stroke-dasharray="5 4" marker-end="url(#arrow-ext-light)" opacity="0.9"/>
<path d="M 653.0 374.2 Q 679.4 360.6 706.4 372.9" stroke="#A78BFA" stroke-width="1.5" marker-end="url(#arrow-native-light)" opacity="0.9"/>
<path d="M 583.5 368.5 L 294.6 314.1" stroke="#A78BFA" stroke-width="1.5" marker-end="url(#arrow-native-light)" opacity="0.9"/>
<path d="M 608.8 393.1 L 584.2 439.6" stroke="#A78BFA" stroke-width="1.5" marker-end="url(#arrow-native-light)" opacity="0.9"/>
<path d="M 640.4 357.1 Q 655.3 328.2 686.7 319.4" stroke="#A78BFA" stroke-width="1.5" marker-end="url(#arrow-native-light)" opacity="0.9"/>
<path d="M 589.1 357.1 Q 575.0 333.1 547.3 331.3" stroke="#A78BFA" stroke-width="1.5" marker-end="url(#arrow-native-light)" opacity="0.9"/>
<path d="M 597.7 357.1 Q 548.4 296.7 482.1 256.0" stroke="#A78BFA" stroke-width="1.5" marker-end="url(#arrow-native-light)" opacity="0.9"/>
<path d="M 508.7 331.3 L 484.2 378.0" stroke="#C3C0CC" stroke-width="1.5" stroke-dasharray="5 4" marker-end="url(#arrow-ext-light)" opacity="0.9"/>
<path d="M 599.0 130.1 L 526.0 295.3" stroke="#C3C0CC" stroke-width="1.5" stroke-dasharray="5 4" marker-end="url(#arrow-ext-light)" opacity="0.9"/>
<path d="M 544.9 295.3 Q 552.1 274.8 573.8 275.9" stroke="#A78BFA" stroke-width="1.5" marker-end="url(#arrow-native-light)" opacity="0.9"/>
<path d="M 552.8 322.6 L 706.4 363.8" stroke="#A78BFA" stroke-width="1.5" marker-end="url(#arrow-native-light)" opacity="0.9"/>
<path d="M 483.3 312.6 L 294.6 308.9" stroke="#A78BFA" stroke-width="1.5" marker-end="url(#arrow-native-light)" opacity="0.9"/>
<path d="M 483.3 329.9 Q 418.5 375.2 342.4 397.0" stroke="#A78BFA" stroke-width="1.5" marker-end="url(#arrow-native-light)" opacity="0.9"/>
<path d="M 547.3 331.3 Q 575.0 333.1 589.1 357.1" stroke="#A78BFA" stroke-width="1.5" marker-end="url(#arrow-native-light)" opacity="0.9"/>
<path d="M 504.6 295.3 Q 500.2 267.8 475.0 256.0" stroke="#A78BFA" stroke-width="1.5" marker-end="url(#arrow-native-light)" opacity="0.9"/>
<path d="M 500.0 243.5 Q 532.9 235.1 562.2 252.4" stroke="#C3C0CC" stroke-width="1.5" stroke-dasharray="5 4" marker-end="url(#arrow-ext-light)" opacity="0.9"/>
<path d="M 463.0 256.0 L 473.3 378.0" stroke="#C3C0CC" stroke-width="1.5" stroke-dasharray="5 4" marker-end="url(#arrow-ext-light)" opacity="0.9"/>
<path d="M 423.0 251.7 L 294.6 297.3" stroke="#C3C0CC" stroke-width="1.5" stroke-dasharray="5 4" marker-end="url(#arrow-ext-light)" opacity="0.9"/>
<path d="M 448.6 256.0 Q 444.1 284.6 418.5 298.1" stroke="#C3C0CC" stroke-width="1.5" stroke-dasharray="5 4" marker-end="url(#arrow-ext-light)" opacity="0.9"/>
<path d="M 450.2 220.0 L 365.6 85.0" stroke="#C3C0CC" stroke-width="1.5" stroke-dasharray="5 4" marker-end="url(#arrow-ext-light)" opacity="0.9"/>
<path d="M 423.0 227.3 L 222.3 171.3" stroke="#C3C0CC" stroke-width="1.5" stroke-dasharray="5 4" marker-end="url(#arrow-ext-light)" opacity="0.9"/>
<path d="M 482.1 256.0 Q 548.4 296.7 597.7 357.1" stroke="#A78BFA" stroke-width="1.5" marker-end="url(#arrow-native-light)" opacity="0.9"/>
<path d="M 475.0 256.0 Q 500.2 267.8 504.6 295.3" stroke="#A78BFA" stroke-width="1.5" marker-end="url(#arrow-native-light)" opacity="0.9"/>
<path d="M 500.0 235.8 Q 588.3 243.9 675.2 226.1" stroke="#A78BFA" stroke-width="1.5" marker-end="url(#arrow-native-light)" opacity="0.9"/>
<path d="M 713.3 242.1 L 734.1 354.1" stroke="#A78BFA" stroke-width="1.5" marker-end="url(#arrow-native-light)" opacity="0.9"/>
<path d="M 709.7 242.1 L 709.1 283.4" stroke="#A78BFA" stroke-width="1.5" marker-end="url(#arrow-native-light)" opacity="0.9"/>
<path d="M 699.0 242.1 L 629.2 357.1" stroke="#A78BFA" stroke-width="1.5" marker-end="url(#arrow-native-light)" opacity="0.9"/>
<path d="M 675.2 240.3 L 552.8 297.1" stroke="#A78BFA" stroke-width="1.5" marker-end="url(#arrow-native-light)" opacity="0.9"/>
<path d="M 675.2 226.1 Q 588.3 243.9 500.0 235.8" stroke="#A78BFA" stroke-width="1.5" marker-end="url(#arrow-native-light)" opacity="0.9"/>
</g>
<g><rect x="292.5" y="52.0" width="123.5" height="30" rx="15.0" fill="#EDE7FE" stroke="#8B5CF6" stroke-width="1.4"/><text x="354.3" y="72.0" text-anchor="middle" font-family="Space Grotesk, Inter, system-ui, -apple-system, Segoe UI, Helvetica, Arial, sans-serif" font-size="14.5" font-weight="500" fill="#3B2A6B">aqt_connector</text></g>
<g><rect x="564.0" y="97.1" width="86.0" height="30" rx="15.0" fill="#F1F1F4" stroke="#B8B4C4" stroke-width="1.4"/><text x="607.0" y="117.1" text-anchor="middle" font-family="Space Grotesk, Inter, system-ui, -apple-system, Segoe UI, Helvetica, Arial, sans-serif" font-size="14.5" font-weight="500" fill="#4A4A55">autoqasm</text></g>
<g><rect x="96.0" y="577.9" width="78.5" height="30" rx="15.0" fill="#F1F1F4" stroke="#B8B4C4" stroke-width="1.4"/><text x="135.2" y="597.9" text-anchor="middle" font-family="Space Grotesk, Inter, system-ui, -apple-system, Segoe UI, Helvetica, Arial, sans-serif" font-size="14.5" font-weight="500" fill="#4A4A55">bloqade</text></g>
<g><rect x="565.2" y="242.9" width="71.0" height="30" rx="15.0" fill="#EDE7FE" stroke="#8B5CF6" stroke-width="1.4"/><text x="600.7" y="262.9" text-anchor="middle" font-family="Space Grotesk, Inter, system-ui, -apple-system, Segoe UI, Helvetica, Arial, sans-serif" font-size="14.5" font-weight="500" fill="#3B2A6B">braket</text></g>
<g><rect x="268.9" y="577.9" width="101.0" height="30" rx="15.0" fill="#EDE7FE" stroke="#8B5CF6" stroke-width="1.4"/><text x="319.4" y="597.9" text-anchor="middle" font-family="Space Grotesk, Inter, system-ui, -apple-system, Segoe UI, Helvetica, Arial, sans-serif" font-size="14.5" font-weight="500" fill="#3B2A6B">braket_ahs</text></g>
<g><rect x="709.4" y="357.1" width="56.0" height="30" rx="15.0" fill="#EDE7FE" stroke="#8B5CF6" stroke-width="1.4"/><text x="737.4" y="377.1" text-anchor="middle" font-family="Space Grotesk, Inter, system-ui, -apple-system, Segoe UI, Helvetica, Arial, sans-serif" font-size="14.5" font-weight="500" fill="#3B2A6B">cirq</text></g>
<g><rect x="464.3" y="577.9" width="101.0" height="30" rx="15.0" fill="#EDE7FE" stroke="#8B5CF6" stroke-width="1.4" stroke-dasharray="4 3"/><text x="514.8" y="597.9" text-anchor="middle" font-family="Space Grotesk, Inter, system-ui, -apple-system, Segoe UI, Helvetica, Arial, sans-serif" font-size="14.5" font-weight="500" fill="#3B2A6B">cpp_pyqubo</text></g>
<g><rect x="344.0" y="494.4" width="63.5" height="30" rx="15.0" fill="#EDE7FE" stroke="#8B5CF6" stroke-width="1.4"/><text x="375.8" y="514.4" text-anchor="middle" font-family="Space Grotesk, Inter, system-ui, -apple-system, Segoe UI, Helvetica, Arial, sans-serif" font-size="14.5" font-weight="500" fill="#3B2A6B">cudaq</text></g>
<g><rect x="235.6" y="293.3" width="56.0" height="30" rx="15.0" fill="#EDE7FE" stroke="#8B5CF6" stroke-width="1.4"/><text x="263.6" y="313.3" text-anchor="middle" font-family="Space Grotesk, Inter, system-ui, -apple-system, Segoe UI, Helvetica, Arial, sans-serif" font-size="14.5" font-weight="500" fill="#3B2A6B">ionq</text></g>
<g><rect x="96.0" y="138.3" width="123.5" height="30" rx="15.0" fill="#EDE7FE" stroke="#8B5CF6" stroke-width="1.4"/><text x="157.8" y="158.3" text-anchor="middle" font-family="Space Grotesk, Inter, system-ui, -apple-system, Segoe UI, Helvetica, Arial, sans-serif" font-size="14.5" font-weight="500" fill="#3B2A6B">mimiqcircuits</text></g>
<g><rect x="257.9" y="400.0" width="93.5" height="30" rx="15.0" fill="#F1F1F4" stroke="#B8B4C4" stroke-width="1.4"/><text x="304.7" y="420.0" text-anchor="middle" font-family="Space Grotesk, Inter, system-ui, -apple-system, Segoe UI, Helvetica, Arial, sans-serif" font-size="14.5" font-weight="500" fill="#4A4A55">openqasm3</text></g>
<g><rect x="358.9" y="301.1" width="93.5" height="30" rx="15.0" fill="#EDE7FE" stroke="#8B5CF6" stroke-width="1.4"/><text x="405.6" y="321.1" text-anchor="middle" font-family="Space Grotesk, Inter, system-ui, -apple-system, Segoe UI, Helvetica, Arial, sans-serif" font-size="14.5" font-weight="500" fill="#3B2A6B">pennylane</text></g>
<g><rect x="659.7" y="577.9" width="71.0" height="30" rx="15.0" fill="#F1F1F4" stroke="#B8B4C4" stroke-width="1.4" stroke-dasharray="4 3"/><text x="695.2" y="597.9" text-anchor="middle" font-family="Space Grotesk, Inter, system-ui, -apple-system, Segoe UI, Helvetica, Arial, sans-serif" font-size="14.5" font-weight="500" fill="#4A4A55">pulser</text></g>
<g><rect x="443.0" y="381.0" width="63.5" height="30" rx="15.0" fill="#F1F1F4" stroke="#B8B4C4" stroke-width="1.4"/><text x="474.8" y="401.0" text-anchor="middle" font-family="Space Grotesk, Inter, system-ui, -apple-system, Segoe UI, Helvetica, Arial, sans-serif" font-size="14.5" font-weight="500" fill="#4A4A55">pyqir</text></g>
<g><rect x="865.7" y="305.4" width="93.5" height="30" rx="15.0" fill="#F1F1F4" stroke="#B8B4C4" stroke-width="1.4"/><text x="912.5" y="325.4" text-anchor="middle" font-family="Space Grotesk, Inter, system-ui, -apple-system, Segoe UI, Helvetica, Arial, sans-serif" font-size="14.5" font-weight="500" fill="#4A4A55">pyqpanda3</text></g>
<g><rect x="539.2" y="442.6" width="71.0" height="30" rx="15.0" fill="#EDE7FE" stroke="#8B5CF6" stroke-width="1.4"/><text x="574.7" y="462.6" text-anchor="middle" font-family="Space Grotesk, Inter, system-ui, -apple-system, Segoe UI, Helvetica, Arial, sans-serif" font-size="14.5" font-weight="500" fill="#3B2A6B">pyquil</text></g>
<g><rect x="673.3" y="286.4" width="71.0" height="30" rx="15.0" fill="#EDE7FE" stroke="#8B5CF6" stroke-width="1.4"/><text x="708.8" y="306.4" text-anchor="middle" font-family="Space Grotesk, Inter, system-ui, -apple-system, Segoe UI, Helvetica, Arial, sans-serif" font-size="14.5" font-weight="500" fill="#3B2A6B">pytket</text></g>
<g><rect x="586.5" y="360.1" width="63.5" height="30" rx="15.0" fill="#EDE7FE" stroke="#8B5CF6" stroke-width="1.4"/><text x="618.2" y="380.1" text-anchor="middle" font-family="Space Grotesk, Inter, system-ui, -apple-system, Segoe UI, Helvetica, Arial, sans-serif" font-size="14.5" font-weight="500" fill="#3B2A6B">qasm2</text></g>
<g><rect x="825.1" y="577.9" width="108.5" height="30" rx="15.0" fill="#F1F1F4" stroke="#B8B4C4" stroke-width="1.4" stroke-dasharray="4 3"/><text x="879.3" y="597.9" text-anchor="middle" font-family="Space Grotesk, Inter, system-ui, -apple-system, Segoe UI, Helvetica, Arial, sans-serif" font-size="14.5" font-weight="500" fill="#4A4A55">qasm2_kirin</text></g>
<g><rect x="486.3" y="298.3" width="63.5" height="30" rx="15.0" fill="#EDE7FE" stroke="#8B5CF6" stroke-width="1.4"/><text x="518.1" y="318.3" text-anchor="middle" font-family="Space Grotesk, Inter, system-ui, -apple-system, Segoe UI, Helvetica, Arial, sans-serif" font-size="14.5" font-weight="500" fill="#3B2A6B">qasm3</text></g>
<g><rect x="840.9" y="468.0" width="48.5" height="30" rx="15.0" fill="#F1F1F4" stroke="#B8B4C4" stroke-width="1.4"/><text x="865.1" y="488.0" text-anchor="middle" font-family="Space Grotesk, Inter, system-ui, -apple-system, Segoe UI, Helvetica, Arial, sans-serif" font-size="14.5" font-weight="500" fill="#4A4A55">qat</text></g>
<g><rect x="649.7" y="520.0" width="56.0" height="30" rx="15.0" fill="#F1F1F4" stroke="#B8B4C4" stroke-width="1.4"/><text x="677.7" y="540.0" text-anchor="middle" font-family="Space Grotesk, Inter, system-ui, -apple-system, Segoe UI, Helvetica, Arial, sans-serif" font-size="14.5" font-weight="500" fill="#4A4A55">qibo</text></g>
<g><rect x="426.0" y="223.0" width="71.0" height="30" rx="15.0" fill="#EDE7FE" stroke="#8B5CF6" stroke-width="1.4"/><text x="461.5" y="243.0" text-anchor="middle" font-family="Space Grotesk, Inter, system-ui, -apple-system, Segoe UI, Helvetica, Arial, sans-serif" font-size="14.5" font-weight="500" fill="#3B2A6B">qiskit</text></g>
<g><rect x="678.2" y="209.1" width="63.5" height="30" rx="15.0" fill="#EDE7FE" stroke="#8B5CF6" stroke-width="1.4"/><text x="710.0" y="229.1" text-anchor="middle" font-family="Space Grotesk, Inter, system-ui, -apple-system, Segoe UI, Helvetica, Arial, sans-serif" font-size="14.5" font-weight="500" fill="#3B2A6B">qrisp</text></g>
<g><rect x="1028.0" y="577.9" width="56.0" height="30" rx="15.0" fill="#EDE7FE" stroke="#8B5CF6" stroke-width="1.4" stroke-dasharray="4 3"/><text x="1056.0" y="597.9" text-anchor="middle" font-family="Space Grotesk, Inter, system-ui, -apple-system, Segoe UI, Helvetica, Arial, sans-serif" font-size="14.5" font-weight="500" fill="#3B2A6B">qubo</text></g>
<g><rect x="994.2" y="392.1" width="56.0" height="30" rx="15.0" fill="#F1F1F4" stroke="#B8B4C4" stroke-width="1.4"/><text x="1022.2" y="412.1" text-anchor="middle" font-family="Space Grotesk, Inter, system-ui, -apple-system, Segoe UI, Helvetica, Arial, sans-serif" font-size="14.5" font-weight="500" fill="#4A4A55">stim</text></g>
<g><rect x="96" y="653" width="26" height="18" rx="9" fill="#EDE7FE" stroke="#8B5CF6" stroke-width="1.4"/><text x="130" y="667" font-family="Space Grotesk, Inter, system-ui, -apple-system, Segoe UI, Helvetica, Arial, sans-serif" font-size="13" fill="#6B6B6B">native program type</text><rect x="274" y="653" width="26" height="18" rx="9" fill="#F1F1F4" stroke="#B8B4C4" stroke-width="1.4"/><text x="308" y="667" font-family="Space Grotesk, Inter, system-ui, -apple-system, Segoe UI, Helvetica, Arial, sans-serif" font-size="13" fill="#6B6B6B">via extras package</text><rect x="444" y="653" width="26" height="18" rx="9" fill="none" stroke="#B8B4C4" stroke-width="1.4" stroke-dasharray="4 3"/><text x="478" y="667" font-family="Space Grotesk, Inter, system-ui, -apple-system, Segoe UI, Helvetica, Arial, sans-serif" font-size="13" fill="#6B6B6B">no conversions yet</text><path d="M 626 662 L 656 662" stroke="#A78BFA" stroke-width="1.5"/><text x="664" y="667" font-family="Space Grotesk, Inter, system-ui, -apple-system, Segoe UI, Helvetica, Arial, sans-serif" font-size="13" fill="#6B6B6B">native conversion</text><path d="M 794 662 L 824 662" stroke="#C3C0CC" stroke-width="1.5" stroke-dasharray="5 4"/><text x="832 " y="667" font-family="Space Grotesk, Inter, system-ui, -apple-system, Segoe UI, Helvetica, Arial, sans-serif" font-size="13" fill="#6B6B6B">requires extras</text><text x="1084" y="690" text-anchor="end" font-family="Space Grotesk, Inter, system-ui, -apple-system, Segoe UI, Helvetica, Arial, sans-serif" font-size="12" fill="#6B6B6B">26 program types &#183; 63 conversions</text></g>
</svg>